<svg xmlns="http://www.w3.org/2000/svg" xmlns:svgjs="http://svgjs.dev/svgjs" xmlns:xlink="http://www.w3.org/1999/xlink" width="1440" height="560" preserveAspectRatio="none" version="1.1" viewBox="0 0 1440 560"><g fill="none" mask="url(&quot;#SvgjsMask1009&quot;)"><rect width="1440" height="560" x="0" y="0" fill="#0e2a47"/><path stroke="url(&quot;#SvgjsLinearGradient1010&quot;)" stroke-linecap="round" stroke-width="10" d="M1285 283L1046 44" class="TopLeft"/><path stroke="url(&quot;#SvgjsLinearGradient1010&quot;)" stroke-linecap="round" stroke-width="6" d="M1365 535L958 128" class="TopLeft"/><path stroke="url(&quot;#SvgjsLinearGradient1010&quot;)" stroke-linecap="round" stroke-width="8" d="M566 161L296 -109" class="TopLeft"/><path stroke="url(&quot;#SvgjsLinearGradient1010&quot;)" stroke-linecap="round" stroke-width="10" d="M1368 539L1205 376" class="TopLeft"/><path stroke="url(&quot;#SvgjsLinearGradient1011&quot;)" stroke-linecap="round" stroke-width="6" d="M560 456L735 631" class="BottomRight"/><path stroke="url(&quot;#SvgjsLinearGradient1010&quot;)" stroke-linecap="round" stroke-width="10" d="M983 153L1347 517" class="TopLeft"/><path stroke="url(&quot;#SvgjsLinearGradient1010&quot;)" stroke-linecap="round" stroke-width="8" d="M1299 399L997 97" class="TopLeft"/><path stroke="url(&quot;#SvgjsLinearGradient1011&quot;)" stroke-linecap="round" stroke-width="8" d="M186 398L341 553" class="BottomRight"/><path stroke="url(&quot;#SvgjsLinearGradient1011&quot;)" stroke-linecap="round" stroke-width="6" d="M774 31L1141 398" class="BottomRight"/><path stroke="url(&quot;#SvgjsLinearGradient1011&quot;)" stroke-linecap="round" stroke-width="8" d="M1207 133L1377 303" class="BottomRight"/><path stroke="url(&quot;#SvgjsLinearGradient1010&quot;)" stroke-linecap="round" stroke-width="6" d="M207 412L487 692" class="TopLeft"/><path stroke="url(&quot;#SvgjsLinearGradient1011&quot;)" stroke-linecap="round" stroke-width="6" d="M1125 264L1399 538" class="BottomRight"/><path stroke="url(&quot;#SvgjsLinearGradient1011&quot;)" stroke-linecap="round" stroke-width="10" d="M1326 484L1745 903" class="BottomRight"/><path stroke="url(&quot;#SvgjsLinearGradient1011&quot;)" stroke-linecap="round" stroke-width="10" d="M1050 443L1195 588" class="BottomRight"/><path stroke="url(&quot;#SvgjsLinearGradient1010&quot;)" stroke-linecap="round" stroke-width="8" d="M773 326L506 59" class="TopLeft"/><path stroke="url(&quot;#SvgjsLinearGradient1010&quot;)" stroke-linecap="round" stroke-width="8" d="M919 213L1294 588" class="TopLeft"/><path stroke="url(&quot;#SvgjsLinearGradient1010&quot;)" stroke-linecap="round" stroke-width="8" d="M1175 311L1459 595" class="TopLeft"/><path stroke="url(&quot;#SvgjsLinearGradient1011&quot;)" stroke-linecap="round" stroke-width="10" d="M1174 431L990 247" class="BottomRight"/><path stroke="url(&quot;#SvgjsLinearGradient1010&quot;)" stroke-linecap="round" stroke-width="10" d="M73 537L-78 386" class="TopLeft"/><path stroke="url(&quot;#SvgjsLinearGradient1010&quot;)" stroke-linecap="round" stroke-width="6" d="M734 554L1113 933" class="TopLeft"/><path stroke="url(&quot;#SvgjsLinearGradient1010&quot;)" stroke-linecap="round" stroke-width="8" d="M228 325L-1 96" class="TopLeft"/><path stroke="url(&quot;#SvgjsLinearGradient1011&quot;)" stroke-linecap="round" stroke-width="6" d="M1438 470L1798 830" class="BottomRight"/><path stroke="url(&quot;#SvgjsLinearGradient1011&quot;)" stroke-linecap="round" stroke-width="8" d="M200 212L612 624" class="BottomRight"/><path stroke="url(&quot;#SvgjsLinearGradient1010&quot;)" stroke-linecap="round" stroke-width="8" d="M340 457L-79 38" class="TopLeft"/><path stroke="url(&quot;#SvgjsLinearGradient1010&quot;)" stroke-linecap="round" stroke-width="6" d="M1210 361L1063 214" class="TopLeft"/><path stroke="url(&quot;#SvgjsLinearGradient1010&quot;)" stroke-linecap="round" stroke-width="6" d="M357 95L672 410" class="TopLeft"/><path stroke="url(&quot;#SvgjsLinearGradient1010&quot;)" stroke-linecap="round" stroke-width="8" d="M1347 267L1096 16" class="TopLeft"/><path stroke="url(&quot;#SvgjsLinearGradient1011&quot;)" stroke-linecap="round" stroke-width="8" d="M1322 221L1096 -5" class="BottomRight"/><path stroke="url(&quot;#SvgjsLinearGradient1010&quot;)" stroke-linecap="round" stroke-width="6" d="M1212 141L1513 442" class="TopLeft"/><path stroke="url(&quot;#SvgjsLinearGradient1011&quot;)" stroke-linecap="round" stroke-width="8" d="M1236 549L824 137" class="BottomRight"/><path stroke="url(&quot;#SvgjsLinearGradient1010&quot;)" stroke-linecap="round" stroke-width="8" d="M527 94L215 -218" class="TopLeft"/><path stroke="url(&quot;#SvgjsLinearGradient1011&quot;)" stroke-linecap="round" stroke-width="10" d="M1227 432L882 87" class="BottomRight"/><path stroke="url(&quot;#SvgjsLinearGradient1010&quot;)" stroke-linecap="round" stroke-width="8" d="M22 90L417 485" class="TopLeft"/><path stroke="url(&quot;#SvgjsLinearGradient1010&quot;)" stroke-linecap="round" stroke-width="8" d="M735 57L435 -243" class="TopLeft"/><path stroke="url(&quot;#SvgjsLinearGradient1010&quot;)" stroke-linecap="round" stroke-width="6" d="M393 202L33 -158" class="TopLeft"/><path stroke="url(&quot;#SvgjsLinearGradient1010&quot;)" stroke-linecap="round" stroke-width="8" d="M212 508L-170 126" class="TopLeft"/><path stroke="url(&quot;#SvgjsLinearGradient1011&quot;)" stroke-linecap="round" stroke-width="8" d="M825 315L519 9" class="BottomRight"/><path stroke="url(&quot;#SvgjsLinearGradient1011&quot;)" stroke-linecap="round" stroke-width="10" d="M936 501L1095 660" class="BottomRight"/><path stroke="url(&quot;#SvgjsLinearGradient1011&quot;)" stroke-linecap="round" stroke-width="10" d="M1229 518L925 214" class="BottomRight"/></g><defs><mask id="SvgjsMask1009"><rect width="1440" height="560" fill="#fff"/></mask><linearGradient id="SvgjsLinearGradient1010" x1="100%" x2="0%" y1="100%" y2="0%"><stop offset="0" stop-color="rgba(28, 83, 142, 0)"/><stop offset="1" stop-color="#1c538e"/></linearGradient><linearGradient id="SvgjsLinearGradient1011" x1="0%" x2="100%" y1="0%" y2="100%"><stop offset="0" stop-color="rgba(28, 83, 142, 0)"/><stop offset="1" stop-color="#1c538e"/></linearGradient></defs></svg>